<svg id="Layer_1" data-name="Layer 1" xmlns="http://www.w3.org/2000/svg" viewBox="0 0 114.75 17.37"><defs><style>.cls-1{fill:#178cd3;}.cls-2{fill:#68bd45;}</style></defs><title>logo_small</title><path class="cls-1" d="M23.31,8.08A1.64,1.64,0,0,0,22,7.45a1.26,1.26,0,0,0-.57.14.49.49,0,0,0-.28.48.43.43,0,0,0,.28.41,3.75,3.75,0,0,0,.72.23l.94.22a3.54,3.54,0,0,1,.94.36,2.1,2.1,0,0,1,.72.67A2,2,0,0,1,25,11.08a2.1,2.1,0,0,1-.32,1.19,2.42,2.42,0,0,1-.81.75,3.48,3.48,0,0,1-1.11.4,6.59,6.59,0,0,1-1.22.12A5.89,5.89,0,0,1,20,13.32a3,3,0,0,1-1.36-.79L20,11a2.32,2.32,0,0,0,.72.61,1.93,1.93,0,0,0,.92.21,2.14,2.14,0,0,0,.72-.12.43.43,0,0,0,.32-.42.47.47,0,0,0-.28-.44,3.13,3.13,0,0,0-.72-.25l-.94-.22a3.88,3.88,0,0,1-.94-.35,2,2,0,0,1-.72-.65,2,2,0,0,1-.28-1.13,2.28,2.28,0,0,1,.27-1.14,2.37,2.37,0,0,1,.71-.79,3.06,3.06,0,0,1,1-.45A4.63,4.63,0,0,1,22,5.69a5.42,5.42,0,0,1,1.49.22,2.77,2.77,0,0,1,1.28.77Z" transform="translate(-0.08 -0.13)"/><path class="cls-1" d="M25.59,3.52a1.34,1.34,0,0,1,2.68,0,1.34,1.34,0,0,1-2.68,0Zm.18,2.36h2.31v7.49H25.77Z" transform="translate(-0.08 -0.13)"/><path class="cls-1" d="M29.28,5.88H31.5v1h0a1.87,1.87,0,0,1,.31-.43,2.25,2.25,0,0,1,.48-.39A2.74,2.74,0,0,1,33,5.8a2.64,2.64,0,0,1,.77-.11A2.92,2.92,0,0,1,35.11,6,2,2,0,0,1,36,7a2.5,2.5,0,0,1,1-1,2.92,2.92,0,0,1,1.4-.31,2.86,2.86,0,0,1,1.27.25,2.08,2.08,0,0,1,.82.69,2.93,2.93,0,0,1,.43,1,5.9,5.9,0,0,1,.13,1.27v4.42H38.74V9a1.74,1.74,0,0,0-.22-.9.84.84,0,0,0-.79-.38,1.53,1.53,0,0,0-.67.13,1.1,1.1,0,0,0-.43.36,1.51,1.51,0,0,0-.23.54,2.94,2.94,0,0,0-.07.65v4H34v-4q0-.2,0-.49a2,2,0,0,0-.11-.55,1.06,1.06,0,0,0-.3-.45A.89.89,0,0,0,33,7.72a1.43,1.43,0,0,0-.72.16,1.1,1.1,0,0,0-.42.43,1.76,1.76,0,0,0-.19.61,5.24,5.24,0,0,0,0,.71v3.73H29.28Z" transform="translate(-0.08 -0.13)"/><path class="cls-1" d="M42.44,5.88h2.13v1h0A2.56,2.56,0,0,1,45,6.45a2.74,2.74,0,0,1,.52-.38,3.27,3.27,0,0,1,.65-.28,2.58,2.58,0,0,1,.75-.11A3.86,3.86,0,0,1,48.4,6a3.37,3.37,0,0,1,1.16.8A3.58,3.58,0,0,1,50.31,8a4.46,4.46,0,0,1,.26,1.56,4.72,4.72,0,0,1-.24,1.5,4.14,4.14,0,0,1-.68,1.27,3.31,3.31,0,0,1-1.07.89,3,3,0,0,1-1.43.33,4,4,0,0,1-1.35-.22,2.16,2.16,0,0,1-1-.76h0v4.31H42.44Zm2.13,3.74A1.94,1.94,0,0,0,45,11a2,2,0,0,0,2.73,0,1.94,1.94,0,0,0,.49-1.37,1.94,1.94,0,0,0-.49-1.37,2,2,0,0,0-2.73,0A1.94,1.94,0,0,0,44.56,9.62Z" transform="translate(-0.08 -0.13)"/><path class="cls-1" d="M51.49,1.72h2.31V13.36H51.49Z" transform="translate(-0.08 -0.13)"/><path class="cls-1" d="M62.09,12.07a3.69,3.69,0,0,1-1.4,1.09,4.2,4.2,0,0,1-1.76.39,4.72,4.72,0,0,1-1.63-.28A3.91,3.91,0,0,1,56,12.48a3.72,3.72,0,0,1-.89-1.24,3.92,3.92,0,0,1-.32-1.62A3.92,3.92,0,0,1,55.1,8,3.72,3.72,0,0,1,56,6.76,3.91,3.91,0,0,1,57.31,6a4.72,4.72,0,0,1,1.63-.28A3.7,3.7,0,0,1,60.39,6a3,3,0,0,1,1.11.79A3.62,3.62,0,0,1,62.2,8a5,5,0,0,1,.25,1.62v.72H57.09a1.83,1.83,0,0,0,.6,1.06,1.7,1.7,0,0,0,1.14.39,1.74,1.74,0,0,0,1-.25,2.59,2.59,0,0,0,.69-.65Zm-2-3.3a1.34,1.34,0,0,0-.39-1,1.37,1.37,0,0,0-1-.42,1.74,1.74,0,0,0-.68.12,1.7,1.7,0,0,0-.5.32,1.38,1.38,0,0,0-.32.45,1.47,1.47,0,0,0-.13.53Z" transform="translate(-0.08 -0.13)"/><path class="cls-2" d="M67.62,8.08a1.64,1.64,0,0,0-1.34-.63,1.26,1.26,0,0,0-.57.14.49.49,0,0,0-.28.48.43.43,0,0,0,.28.41,3.75,3.75,0,0,0,.72.23l.94.22a3.54,3.54,0,0,1,.94.36,2.1,2.1,0,0,1,.72.67,2,2,0,0,1,.28,1.13A2.1,2.1,0,0,1,69,12.28a2.42,2.42,0,0,1-.81.75,3.48,3.48,0,0,1-1.11.4,6.59,6.59,0,0,1-1.22.12,5.89,5.89,0,0,1-1.59-.22,3,3,0,0,1-1.36-.79L64.34,11a2.32,2.32,0,0,0,.72.61,1.93,1.93,0,0,0,.92.21,2.14,2.14,0,0,0,.72-.12.43.43,0,0,0,.32-.42.47.47,0,0,0-.28-.44,3.12,3.12,0,0,0-.72-.25l-.94-.22a3.88,3.88,0,0,1-.94-.35,2,2,0,0,1-.72-.65,2,2,0,0,1-.28-1.13,2.28,2.28,0,0,1,.27-1.14,2.37,2.37,0,0,1,.71-.79,3.07,3.07,0,0,1,1-.45,4.63,4.63,0,0,1,1.16-.15,5.42,5.42,0,0,1,1.49.22A2.77,2.77,0,0,1,69,6.68Z" transform="translate(-0.08 -0.13)"/><path class="cls-2" d="M77.26,13.36H75v-1h0a2.56,2.56,0,0,1-.32.43,2.07,2.07,0,0,1-.47.39,2.73,2.73,0,0,1-.63.28,2.64,2.64,0,0,1-.77.11,3.24,3.24,0,0,1-1.42-.27,2,2,0,0,1-.85-.75,2.92,2.92,0,0,1-.4-1.12,9.15,9.15,0,0,1-.1-1.4V5.88h2.31V9.54q0,.32,0,.67a2.11,2.11,0,0,0,.14.64,1,1,0,0,0,1,.66,1.43,1.43,0,0,0,.72-.16,1.1,1.1,0,0,0,.42-.43,1.76,1.76,0,0,0,.19-.61,5.25,5.25,0,0,0,0-.71V5.88h2.31Z" transform="translate(-0.08 -0.13)"/><path class="cls-2" d="M78.43,5.88h2.31v1.2h0a2.84,2.84,0,0,1,.88-1,2.22,2.22,0,0,1,1.28-.35l.4,0a2,2,0,0,1,.37.06V7.88a3.51,3.51,0,0,0-.49-.12,3.15,3.15,0,0,0-.5,0,2.46,2.46,0,0,0-1,.18,1.39,1.39,0,0,0-.59.52,2,2,0,0,0-.27.79,7.72,7.72,0,0,0-.06,1v3.13H78.43Z" transform="translate(-0.08 -0.13)"/><path class="cls-2" d="M88.94,12.42h0a2.17,2.17,0,0,1-1,.86,3.52,3.52,0,0,1-1.35.26,3.47,3.47,0,0,1-1-.15,2.54,2.54,0,0,1-.85-.44,2.12,2.12,0,0,1-.59-.72,2.21,2.21,0,0,1-.22-1,2.29,2.29,0,0,1,.24-1.09,2.14,2.14,0,0,1,.65-.74,3.21,3.21,0,0,1,.93-.45,6.81,6.81,0,0,1,1.09-.24,10.4,10.4,0,0,1,1.12-.09l1,0a1.2,1.2,0,0,0-.44-1,1.58,1.58,0,0,0-1-.36,2.26,2.26,0,0,0-1,.24,2.84,2.84,0,0,0-.84.65L84.35,6.89A4.24,4.24,0,0,1,85.86,6a5.39,5.39,0,0,1,1.79-.3,4.67,4.67,0,0,1,1.67.25,2.43,2.43,0,0,1,1,.75,2.88,2.88,0,0,1,.55,1.21,8,8,0,0,1,.15,1.66v3.8H88.94Zm-.57-2.34-.65,0a3.31,3.31,0,0,0-.75.13,1.68,1.68,0,0,0-.62.32.75.75,0,0,0-.25.6.66.66,0,0,0,.35.62,1.48,1.48,0,0,0,.74.2,2.32,2.32,0,0,0,.65-.09,2,2,0,0,0,.56-.26,1.27,1.27,0,0,0,.39-.43,1.24,1.24,0,0,0,.15-.62v-.49Z" transform="translate(-0.08 -0.13)"/><path class="cls-2" d="M92,5.88h2.22v1h0a1.87,1.87,0,0,1,.31-.43,2.25,2.25,0,0,1,.48-.39,2.74,2.74,0,0,1,.63-.28,2.64,2.64,0,0,1,.77-.11A3.18,3.18,0,0,1,97.9,6a2.05,2.05,0,0,1,.84.75,3,3,0,0,1,.41,1.12,8.56,8.56,0,0,1,.11,1.4v4.13H96.95V9.7q0-.32,0-.67a2.12,2.12,0,0,0-.14-.64,1,1,0,0,0-1-.66,1.43,1.43,0,0,0-.72.16,1.1,1.1,0,0,0-.42.43,1.76,1.76,0,0,0-.19.61,5.25,5.25,0,0,0,0,.71v3.73H92Z" transform="translate(-0.08 -0.13)"/><path class="cls-2" d="M105.5,8.29a1.3,1.3,0,0,0-.48-.41,1.4,1.4,0,0,0-.66-.16,1.77,1.77,0,0,0-1.36.52,1.94,1.94,0,0,0-.49,1.37A1.94,1.94,0,0,0,103,11a1.77,1.77,0,0,0,1.36.52,1.24,1.24,0,0,0,.66-.17,2,2,0,0,0,.48-.4l1.52,1.6a3,3,0,0,1-1.27.78,4.78,4.78,0,0,1-1.39.22,4.72,4.72,0,0,1-1.63-.28,3.91,3.91,0,0,1-1.32-.79,3.72,3.72,0,0,1-.89-1.24,3.92,3.92,0,0,1-.32-1.62A3.92,3.92,0,0,1,100.52,8a3.73,3.73,0,0,1,.89-1.24A3.91,3.91,0,0,1,102.73,6a4.72,4.72,0,0,1,1.63-.28,4.78,4.78,0,0,1,1.39.22,3,3,0,0,1,1.27.78Z" transform="translate(-0.08 -0.13)"/><path class="cls-2" d="M114.48,12.07a3.69,3.69,0,0,1-1.4,1.09,4.2,4.2,0,0,1-1.76.39,4.72,4.72,0,0,1-1.63-.28,3.91,3.91,0,0,1-1.32-.79,3.72,3.72,0,0,1-.89-1.24,3.92,3.92,0,0,1-.32-1.62A3.92,3.92,0,0,1,107.48,8a3.73,3.73,0,0,1,.89-1.24A3.91,3.91,0,0,1,109.69,6a4.72,4.72,0,0,1,1.63-.28,3.7,3.7,0,0,1,1.46.28,3,3,0,0,1,1.11.79,3.62,3.62,0,0,1,.7,1.24,5,5,0,0,1,.25,1.62v.72h-5.36a1.83,1.83,0,0,0,.6,1.06,1.7,1.7,0,0,0,1.14.39,1.74,1.74,0,0,0,1-.25,2.59,2.59,0,0,0,.69-.65Zm-2-3.3a1.34,1.34,0,0,0-.39-1,1.37,1.37,0,0,0-1-.42,1.74,1.74,0,0,0-.68.12,1.7,1.7,0,0,0-.5.32,1.39,1.39,0,0,0-.32.45,1.47,1.47,0,0,0-.13.53Z" transform="translate(-0.08 -0.13)"/><path class="cls-1" d="M11.24,9.65l1.28,2.95a15.19,15.19,0,0,0,1.11-2c.15-.33.28-.65.4-1Z" transform="translate(-0.08 -0.13)"/><path class="cls-1" d="M15,1.56V1.33l-.21-.1c-.09,0-2.32-1.09-7.2-1.09h0C2.67.13.45,1.18.35,1.23l-.21.1v.23a30.53,30.53,0,0,0,0,4.08l0,.24A15.13,15.13,0,0,0,1.5,10.6a16.88,16.88,0,0,0,5.84,6.74l.23.16.23-.16a18.63,18.63,0,0,0,3.52-3.15L9.66,10.39l-2.08,2V2.65l6.61,6.61a15.58,15.58,0,0,0,.76-3.38l0-.24A30.46,30.46,0,0,0,15,1.56Z" transform="translate(-0.08 -0.13)"/></svg>